<?xml version="1.0" encoding="UTF-8"?>
<!-- Generator: visioncortex VTracer -->
<svg id="svg" version="1.1" xmlns="http://www.w3.org/2000/svg" style="display: block;" viewBox="0 0 1500 1500"><path d="M0 0 C1.56016846 0.12012451 1.56016846 0.12012451 3.15185547 0.24267578 C21.29928536 1.64827346 39.16138171 4.22640735 57.0625 7.5 C58.16811279 7.70149658 59.27372559 7.90299316 60.4128418 8.1105957 C66.79942646 9.30666986 73.08766614 10.72265718 79.38061523 12.33935547 C82.40285128 13.10160458 85.4401919 13.7206687 88.5 14.3125 C111.43448007 19.17662599 135.94440733 26.94182081 156.75 37.85546875 C160.12631492 39.5729345 163.56496103 41.15396554 167 42.75 C167.68449219 43.06831787 168.36898437 43.38663574 169.07421875 43.71459961 C170.71573026 44.4772948 172.35780629 45.23877479 174 46 C174 46.66 174 47.32 174 48 C174.80050781 48.20302734 174.80050781 48.20302734 175.6171875 48.41015625 C181.4859147 50.10579196 185.85976736 52.72591276 190.73828125 56.37890625 C192.77097064 57.83584252 194.73351289 58.95751966 197 60 C197 60.66 197 61.32 197 62 C197.6703125 62.21914063 198.340625 62.43828125 199.03125 62.6640625 C202.93130339 64.41908653 206.10382499 66.79735257 209.5 69.375 C210.2005249 69.90303223 210.9010498 70.43106445 211.62280273 70.97509766 C217.47963135 75.46013423 222.90248159 80.30837439 228.23828125 85.39453125 C230.3569051 87.39328954 232.47843255 89.2483649 234.75 91.0625 C248.69852374 102.8861872 258.41715534 120.97252332 267.55224609 136.54736328 C269.07616154 139.12902511 270.62691459 141.6934207 272.1796875 144.2578125 C274.2205692 147.65487595 276.14041168 151.0588588 277.875 154.625 C278.36355469 155.62144531 278.85210938 156.61789062 279.35546875 157.64453125 C280.16951172 159.30548828 280.16951172 159.30548828 281 161 C281.68195833 162.35889488 282.36564108 163.71692534 283.05078125 165.07421875 C283.40479004 165.77659668 283.75879883 166.47897461 284.12353516 167.20263672 C284.81344471 168.57074097 285.50445822 169.9382893 286.19677734 171.30517578 C289.5286489 177.93709106 292.3190674 184.72537482 294.875 191.6875 C296.65168876 196.49809897 298.50487228 201.23806003 300.5625 205.9375 C304.79517074 215.95937202 307.9137296 226.65001638 309.54296875 237.41015625 C310.0020965 240.21535473 310.0020965 240.21535473 310.984375 243.76953125 C312.07192664 248.02740322 312.61105944 252.25976602 313.0625 256.625 C313.2186665 258.07567066 313.37619393 259.52619554 313.53515625 260.9765625 C313.600979 261.60643066 313.66680176 262.23629883 313.73461914 262.88525391 C313.94426151 264.55583548 314.2206426 266.21803406 314.52075195 267.87475586 C314.99674962 270.97880381 315.12931955 273.88942928 315.1328125 277.02734375 C315.13410156 278.14947266 315.13539063 279.27160156 315.13671875 280.42773438 C315.13285156 281.58595703 315.12898438 282.74417969 315.125 283.9375 C315.12886719 285.09185547 315.13273437 286.24621094 315.13671875 287.43554688 C315.12589434 296.86901727 315.12589434 296.86901727 314.33984375 301.171875 C314.22769531 302.10515625 314.11554687 303.0384375 314 304 C316.34079757 306.35647001 316.34079757 306.35647001 319 308 C319 308.66 319 309.32 319 310 C319.8353125 310.37125 319.8353125 310.37125 320.6875 310.75 C325.50185889 313.35235615 328.66735789 316.73005229 332 321 C332.763125 321.763125 333.52625 322.52625 334.3125 323.3125 C336.55443548 325.55443548 338.69869476 327.82651592 340.8125 330.1875 C341.41707031 330.86167969 342.02164063 331.53585937 342.64453125 332.23046875 C344 334 344 334 344 336 C344.99 336.33 345.98 336.66 347 337 C348.1875 339.5625 348.1875 339.5625 349 342 C349.66 342 350.32 342 351 342 C355 348.75 355 348.75 355 351 C355.66 351 356.32 351 357 351 C370.55574584 374.04140422 378.8209381 396.05125233 378 423 C377.97035156 423.99128906 377.94070313 424.98257812 377.91015625 426.00390625 C376.81761815 443.45786859 370.47436967 460.27514632 362.8125 475.8125 C362.31314941 476.82679077 362.31314941 476.82679077 361.80371094 477.86157227 C358.01001291 485.31075571 358.01001291 485.31075571 353.6875 486.79296875 C347.42374516 487.71250253 344.08779484 486.95884228 338.875 483.25 C334.18565941 479.55697823 334.18565941 479.55697823 333 476 C332.82687286 473.86494612 332.70292258 471.72578114 332.60546875 469.5859375 C332.5391626 468.27866699 332.47285645 466.97139648 332.40454102 465.62451172 C332.35222824 464.58420807 332.35222824 464.58420807 332.29885864 463.52288818 C331.7131565 452.22585109 330.84358776 441.05810294 329.0625 429.875 C328.90483154 428.85841309 328.74716309 427.84182617 328.5847168 426.79443359 C327.71709057 421.69131269 326.62192504 417.5365733 324 413 C323.67 412.154375 323.34 411.30875 323 410.4375 C320.85892666 405.21863374 318.91638196 402.77498884 314 400 C314.144375 401.06734375 314.28875 402.1346875 314.4375 403.234375 C317.87884517 430.17422926 318.90471698 467.47796168 302.9375 491 C302.17759766 492.1446875 302.17759766 492.1446875 301.40234375 493.3125 C300.70818359 494.1478125 300.70818359 494.1478125 300 495 C299.34 495 298.68 495 298 495 C298 495.66 298 496.32 298 497 C296.35 497.66 294.7 498.32 293 499 C293 499.66 293 500.32 293 501 C286.04362493 503.75856253 279.913998 505.14477054 272.375 505.3125 C271.26898437 505.34988281 270.16296875 505.38726563 269.0234375 505.42578125 C266 505 266 505 263.6015625 503.16796875 C262 501 262 501 262 498 C261.01 497.67 260.02 497.34 259 497 C257.69537669 494.84144143 256.57789317 492.76781704 255.5 490.5 C255.18957764 489.85925537 254.87915527 489.21851074 254.55932617 488.55834961 C252.28386018 483.78041295 250.40490235 479.09379801 249 474 C248.70738281 472.97390625 248.41476562 471.9478125 248.11328125 470.890625 C247.02190425 466.93923634 245.9937916 462.97688874 245 459 C244.80116211 458.20432617 244.60232422 457.40865234 244.39746094 456.58886719 C241.36468458 444.27266274 239.06592946 431.9605766 237.34375 419.39135742 C237.19550781 418.34052979 237.04726563 417.28970215 236.89453125 416.20703125 C236.70661011 414.80674683 236.70661011 414.80674683 236.51489258 413.37817383 C236.09779765 410.75011702 236.09779765 410.75011702 234 408 C231.57857318 407.30684347 229.34955433 406.82502938 226.875 406.4375 C226.14015381 406.31745605 225.40530762 406.19741211 224.64819336 406.07373047 C217.9782497 405.04547887 211.27809639 404.28323876 204.5625 403.625 C203.56911621 403.51599365 202.57573242 403.4069873 201.55224609 403.29467773 C194.73857926 402.69889444 189.38937474 403.56687004 183 406 C182.87471924 406.64735107 182.74943848 407.29470215 182.62036133 407.96166992 C180.36558978 419.55866043 178.06086519 431.13344356 175.3125 442.625 C175.11052002 443.46957764 174.90854004 444.31415527 174.70043945 445.18432617 C166.64252341 478.35747659 166.64252341 478.35747659 156 489 C155.34 489 154.68 489 154 489 C153.67 489.99 153.34 490.98 153 492 C152.34 492 151.68 492 151 492 C150.67 492.99 150.34 493.98 150 495 C143.48318989 500.70985051 137.84138085 502.78173782 129.23828125 502.24609375 C128.49964844 502.16488281 127.76101563 502.08367187 127 502 C115.8952484 471.17920476 117.87796769 433.65579302 131 404 C131.66 404 132.32 404 133 404 C133.185625 403.21625 133.37125 402.4325 133.5625 401.625 C136.38710724 394.50207739 140.80500869 388.52066933 147 384 C147.60199219 383.22140625 148.20398438 382.4428125 148.82421875 381.640625 C159.32327221 368.89850626 179.23355941 359.81130898 195 356 C193.2598242 326.67736305 193.2598242 326.67736305 189.5 297.5625 C189.19799683 295.71192993 189.19799683 295.71192993 188.88989258 293.82397461 C187.84197365 287.78488468 186.54926947 281.9590689 184.65991211 276.12573242 C184.00425495 274.01370618 183.50990606 271.91476517 183.0625 269.75 C181.85882252 264.12305241 180.242631 258.62392215 178.61816406 253.10595703 C178.18455022 251.62872439 177.75451938 250.15043754 177.32714844 248.67138672 C174.21815893 237.9139409 170.81779182 227.37956826 166.74560547 216.94873047 C165.97915177 214.94551061 165.25267576 212.93138524 164.53515625 210.91015625 C160.23784534 198.88140138 154.57527487 188.08782681 147.48046875 177.4375 C146.01242831 175.02046244 144.97050457 172.65113445 144 170 C143.34 170 142.68 170 142 170 C140.0546875 167.8828125 140.0546875 167.8828125 137.875 165.125 C137.15054688 164.22007812 136.42609375 163.31515625 135.6796875 162.3828125 C134 160 134 160 134 158 C133.34 158 132.68 158 132 158 C130.34375 156.28515625 130.34375 156.28515625 128.5 154.0625 C126.11073001 151.07954821 126.11073001 151.07954821 123 149 C123 148.34 123 147.68 123 147 C122.43539062 146.75636719 121.87078125 146.51273438 121.2890625 146.26171875 C118.57310932 144.76470019 116.62720762 142.94366063 114.375 140.8125 C110.11148603 136.8789008 105.6935967 133.57137139 100.8359375 130.41015625 C100.23007812 129.94480469 99.62421875 129.47945312 99 129 C99 128.34 99 127.68 99 127 C98.41863281 126.87238281 97.83726562 126.74476563 97.23828125 126.61328125 C95.03662168 126.01003421 93.22921938 125.19829204 91.1875 124.1875 C84.7235829 121.25322184 77.86133682 119.71176802 71 118 C69.98679687 117.731875 68.97359375 117.46375 67.9296875 117.1875 C46.09562948 111.47613878 23.57017755 109.17152212 1.14111328 107.1953125 C-0.63806539 107.0330157 -2.41511483 106.84757637 -4.19140625 106.65625 C-17.16031767 105.26465295 -29.74404961 106.02193143 -42.6875 107.3125 C-43.89841309 107.43012695 -45.10932617 107.54775391 -46.35693359 107.66894531 C-53.42906351 108.42066552 -60.23150245 109.59549394 -67.13452148 111.31152344 C-69.87224805 111.96930557 -72.59745898 112.48116826 -75.375 112.9375 C-98.73039315 117.13207492 -120.94213888 126.44172717 -141 139 C-141.63808594 139.38542969 -142.27617188 139.77085937 -142.93359375 140.16796875 C-147.90861512 143.19849112 -152.67900112 146.51467807 -157.43286133 149.87817383 C-160.20194034 151.82293768 -162.91483121 153.59969281 -166 155 C-166 155.66 -166 156.32 -166 157 C-167.43359375 158.41015625 -167.43359375 158.41015625 -169.4375 160.0625 C-176.88564056 166.43158133 -183.26513453 172.85861321 -188.58984375 181.12890625 C-189.05519531 181.74636719 -189.52054688 182.36382812 -190 183 C-190.66 183 -191.32 183 -192 183 C-192.1546875 183.86431641 -192.1546875 183.86431641 -192.3125 184.74609375 C-193.11745512 187.38506592 -194.29870218 188.89255765 -196 191.0625 C-205.85361335 204.90207194 -210.87365867 220.70409364 -215 237 C-215.31710937 238.20140625 -215.63421875 239.4028125 -215.9609375 240.640625 C-217.53449915 246.71675415 -218.91886402 252.8169744 -220 259 C-220.28037109 260.52367187 -220.28037109 260.52367187 -220.56640625 262.078125 C-221.89787762 270.38352686 -222.20963369 278.53580216 -222.25 286.9375 C-222.25918457 288.00363525 -222.26836914 289.06977051 -222.27783203 290.16821289 C-222.25434967 296.14916959 -221.71572026 301.27026255 -220 307 C-219.66056635 308.33179341 -219.32570724 309.66478328 -219 311 C-218.34 311 -217.68 311 -217 311 C-214 314.46153846 -214 314.46153846 -214 317 C-213.34 317 -212.68 317 -212 317 C-209 320.46153846 -209 320.46153846 -209 323 C-208.45601562 323.21527344 -207.91203125 323.43054688 -207.3515625 323.65234375 C-204.19070887 325.46379641 -201.87236204 327.95496023 -199.375 330.5625 C-196.03597098 334.22714016 -196.03597098 334.22714016 -192 337 C-192 337.66 -192 338.32 -192 339 C-191.43410156 339.2371875 -190.86820313 339.474375 -190.28515625 339.71875 C-187.49885254 341.28098524 -185.64667486 343.19737443 -183.4375 345.5 C-181.0038015 348.02809153 -178.92990599 350.04672934 -176 352 C-176 352.66 -176 353.32 -176 354 C-175.01 354.33 -174.02 354.66 -173 355 C-173 355.66 -173 356.32 -173 357 C-172.34 357 -171.68 357 -171 357 C-169.81640625 358.57421875 -169.81640625 358.57421875 -168.5625 360.6875 C-168.12292969 361.42226563 -167.68335938 362.15703125 -167.23046875 362.9140625 C-166.82441406 363.60242188 -166.41835938 364.29078125 -166 365 C-165.46375 365.845625 -164.9275 366.69125 -164.375 367.5625 C-158.95415509 377.17217961 -156.53055272 387.16951155 -155.375 398.0625 C-155.18997925 399.76563354 -155.18997925 399.76563354 -155.0012207 401.50317383 C-149.21302612 457.40402961 -149.21302612 457.40402961 -161.375 473.4375 C-167.19749906 479.12136813 -170.96441847 480.4510353 -179 480.62890625 C-183.02371265 479.78539357 -185.53806245 478.22708584 -188 475 C-189.56474506 471.5201545 -190.49667502 467.94083778 -191.4375 464.25 C-191.72407471 463.1988501 -192.01064941 462.1477002 -192.3059082 461.06469727 C-192.91081971 458.84306716 -193.50724204 456.61911039 -194.09570312 454.39306641 C-195.27657863 449.96223279 -196.5285236 445.55290194 -197.7800293 441.14160156 C-200.28195395 432.30779496 -202.68882871 423.45247715 -205.02734375 414.57421875 C-206.38897825 409.57062211 -207.85591761 404.59982941 -209.33837891 399.63085938 C-210.95799767 394.19846901 -210.95799767 394.19846901 -211.51171875 391.58203125 C-211.8743065 389.74619742 -211.8743065 389.74619742 -214.125 388.875 C-215.548125 388.441875 -215.548125 388.441875 -217 388 C-218.093125 387.62875 -219.18625 387.2575 -220.3125 386.875 C-227.48504438 385.17304032 -232.5866524 385.9737922 -239.4453125 388.21484375 C-241.8787903 388.96274748 -244.24733833 389.48209763 -246.75 389.9375 C-253.28414147 391.16977074 -259.65715976 393.01737839 -266 395 C-266.94101562 395.26941406 -267.88203125 395.53882813 -268.8515625 395.81640625 C-271.19435038 396.80019331 -271.19435038 396.80019331 -271.78515625 399.15234375 C-271.87667969 400.07144531 -271.96820313 400.99054688 -272.0625 401.9375 C-272.74759836 407.28507328 -273.67069878 412.48627988 -274.8125 417.75 C-275.16842313 419.41136105 -275.52387647 421.07282281 -275.87890625 422.734375 C-276.06340332 423.59611328 -276.24790039 424.45785156 -276.43798828 425.34570312 C-277.00087623 428.0041383 -277.54790892 430.66534443 -278.08984375 433.328125 C-280.64767094 445.86093054 -283.4016774 458.34304925 -286.25 470.8125 C-286.42857544 471.5960083 -286.60715088 472.3795166 -286.7911377 473.18676758 C-287.30151961 475.42314055 -287.81429513 477.65894823 -288.328125 479.89453125 C-288.4820874 480.56845413 -288.6360498 481.24237701 -288.79467773 481.9367218 C-290.68260055 490.10912442 -290.68260055 490.10912442 -295.3125 493.125 C-296.48232422 493.90230469 -296.48232422 493.90230469 -297.67578125 494.6953125 C-302.04834323 497.14982628 -305.89130697 497.16070595 -310.875 497.1875 C-312.06867188 497.20167969 -313.26234375 497.21585938 -314.4921875 497.23046875 C-319.83027451 496.87974811 -323.83231761 495.59310929 -327.875 492.0625 C-328.47054687 491.55847656 -329.06609375 491.05445313 -329.6796875 490.53515625 C-331 489 -331 489 -331 486 C-331.99 485.67 -332.98 485.34 -334 485 C-335.28065636 482.86359182 -336.37658065 480.80430962 -337.4375 478.5625 C-338.01371094 477.38816406 -338.58992188 476.21382812 -339.18359375 475.00390625 C-339.79616215 473.67251447 -340.40116641 472.33762567 -341 471 C-341.51433594 469.86183838 -341.51433594 469.86183838 -342.0390625 468.70068359 C-344.73912917 462.3934182 -346.13668988 456.27408677 -347.125 449.5 C-347.28967773 448.41154785 -347.45435547 447.3230957 -347.62402344 446.20166016 C-349.73037429 431.22571416 -350.33052281 416.09589409 -351 401 C-352.29673602 403.53919006 -353.58747837 406.08114238 -354.875 408.625 C-355.23980469 409.33785156 -355.60460937 410.05070312 -355.98046875 410.78515625 C-367.2604064 433.13994177 -364.00972149 466.56882955 -356.8671875 489.98046875 C-355.49481482 494.75904568 -355.38093894 496.8361652 -357.7578125 501.3046875 C-358.53336156 502.50364172 -359.32311344 503.69349862 -360.125 504.875 C-360.7435083 505.80590454 -360.7435083 505.80590454 -361.37451172 506.75561523 C-366.36398974 514.16774688 -371.6470325 521.69364216 -380.3671875 524.859375 C-384.10974305 525.05927411 -385.62240545 523.62402921 -388.5625 521.375 C-389.49191406 520.68148437 -390.42132813 519.98796875 -391.37890625 519.2734375 C-393.97455559 517.02206952 -395.89714805 514.70664113 -398 512 C-398.82371094 511.21367188 -399.64742188 510.42734375 -400.49609375 509.6171875 C-403.28229744 506.70493091 -405.18875843 503.65469353 -407.0625 500.125 C-407.55073242 499.27421875 -407.55073242 499.27421875 -408.04882812 498.40625 C-414.4102162 486.56525041 -415.86366085 473.1296059 -416.5625 459.9375 C-416.60725464 459.16862457 -416.65200928 458.39974915 -416.69812012 457.60757446 C-417.69811313 439.23944359 -415.20154431 421.67245996 -410 404 C-408.92720446 399.49530793 -407.99076979 394.96036285 -407.03515625 390.4296875 C-406.7109375 388.91145833 -406.38671875 387.39322917 -406.0625 385.875 C-405.90587891 385.11574219 -405.74925781 384.35648438 -405.58789062 383.57421875 C-402.20119013 367.89554954 -392.54186317 353.83010897 -380 344 C-379.08471293 342.93305199 -378.18941997 341.84869915 -377.3125 340.75 C-376.549375 339.8425 -375.78625 338.935 -375 338 C-374.34 338 -373.68 338 -373 338 C-372.67 337.01 -372.34 336.02 -372 335 C-370.328125 333.3515625 -370.328125 333.3515625 -368.25 331.625 C-363.17192694 327.38035114 -358.62946643 322.62941428 -353.98828125 317.91796875 C-352.579322 316.49522513 -351.17034802 315.07249573 -349.76049805 313.65063477 C-348.78803116 312.66800215 -347.81735068 311.68359867 -346.84838867 310.69750977 C-345.44137874 309.2663675 -344.02743802 307.84204942 -342.61328125 306.41796875 C-341.77579346 305.57000732 -340.93830566 304.7220459 -340.07543945 303.84838867 C-338 302 -338 302 -336 302 C-335.67 301.01 -335.34 300.02 -335 299 C-334.34 299 -333.68 299 -333 299 C-331.49655402 294.94069586 -330.76904307 291.50325203 -330.625 287.1875 C-329.20025048 263.8019561 -323.74788931 240.31585665 -318.375 217.5625 C-318.18107666 216.74104492 -317.98715332 215.91958984 -317.78735352 215.07324219 C-314.60260886 201.91340786 -310.74036641 188.43472819 -304.95385742 176.1730957 C-304.05779835 174.13167727 -303.37250221 172.12924869 -302.71875 170 C-300.78234704 164.09886944 -298.21616715 158.51253934 -295.625 152.875 C-295.15578125 151.82957031 -294.6865625 150.78414062 -294.203125 149.70703125 C-291.58477216 143.9857133 -288.81967211 138.99597252 -285 134 C-284.09373613 132.38167166 -283.18797322 130.76304922 -282.2890625 129.140625 C-280.17157956 125.62432 -277.7912139 122.28668145 -275.43432617 118.9284668 C-272.57673692 114.85573721 -269.84365462 110.72055733 -267.19140625 106.51171875 C-266.60166016 105.76341797 -266.60166016 105.76341797 -266 105 C-265.34 105 -264.68 105 -264 105 C-263.731875 104.43796875 -263.46375 103.8759375 -263.1875 103.296875 C-261.9196021 100.84449354 -260.51027658 98.56072317 -259 96.25 C-258.484375 95.45078125 -257.96875 94.6515625 -257.4375 93.828125 C-256.963125 93.22484375 -256.48875 92.6215625 -256 92 C-255.34 92 -254.68 92 -254 92 C-253.773125 91.46375 -253.54625 90.9275 -253.3125 90.375 C-251.54429911 87.17539839 -249.46329797 84.70962777 -247 82 C-246.34 82 -245.68 82 -245 82 C-244.67 81.01 -244.34 80.02 -244 79 C-242.3603279 77.63360658 -240.68889872 76.3050581 -239 75 C-238.278125 74.2575 -237.55625 73.515 -236.8125 72.75 C-232.80680841 68.83332378 -228.42006152 65.43542993 -224 62 C-222.91912109 61.13761719 -222.91912109 61.13761719 -221.81640625 60.2578125 C-220 59 -220 59 -218 59 C-218 58.34 -218 57.68 -218 57 C-216.41796875 55.73828125 -216.41796875 55.73828125 -214.1875 54.3125 C-213.36378906 53.78269531 -212.54007813 53.25289063 -211.69140625 52.70703125 C-210.80324219 52.14371094 -209.91507813 51.58039063 -209 51 C-208.12214844 50.42636719 -207.24429688 49.85273438 -206.33984375 49.26171875 C-200.04931959 45.17966638 -193.62061549 41.51485387 -187 38 C-185.78985284 37.33817446 -184.58024995 36.67535306 -183.37109375 36.01171875 C-164.74569787 25.86785793 -145.37990311 17.49907044 -125.56225586 9.98632812 C-122.97974825 8.99220419 -120.41782285 7.95499491 -117.85546875 6.91015625 C-81.50864066 -7.65781792 -38.23019318 -3.11156915 0 0 Z " transform="translate(740,259)" style="fill: rgb(0, 0, 0); --darkreader-inline-fill: var(--darkreader-text-000000, #e8e6e3);" data-darkreader-inline-fill=""/><path d="M0 0 C7.88553676 4.54015753 11.90169635 15.60134093 14.22265625 23.96875 C18.1491854 49.14014214 10.38820411 79.26269699 2.65625 103.11328125 C1.53213732 106.62613338 0.66072386 110.16136058 -0.1875 113.75 C-0.51917264 115.08374741 -0.85210839 116.41718292 -1.1875 117.75 C-0.05855124 116.81725891 1.06550876 115.87859878 2.1875 114.9375 C3.12722656 114.15439453 3.12722656 114.15439453 4.0859375 113.35546875 C6.0346048 111.66774261 6.0346048 111.66774261 7.8125 108.75 C8.4725 108.75 9.1325 108.75 9.8125 108.75 C10.09013184 108.16984131 10.36776367 107.58968262 10.65380859 106.99194336 C11.76751284 104.83704531 12.99043476 102.88481794 14.3515625 100.87890625 C14.845354 100.14712158 15.33914551 99.41533691 15.84790039 98.66137695 C16.37246826 97.88624756 16.89703613 97.11111816 17.4375 96.3125 C19.07337879 93.86585565 20.70533764 91.41663697 22.33642578 88.96679688 C23.5542033 87.13791499 24.77477365 85.31089307 25.99609375 83.484375 C29.22537625 78.4625386 31.98874724 73.45978535 34.5 68.046875 C34.9755835 67.02231201 35.45116699 65.99774902 35.94116211 64.94213867 C36.87637329 62.90085276 37.79472787 60.85173428 38.69360352 58.79418945 C41.41067719 52.81379235 44.12998317 48.27428602 49.8125 44.75 C52.75 43.875 52.75 43.875 54.8125 43.75 C57.82586774 47.91943964 59.60917073 51.48166091 61 56.5 C61.32355469 57.62921875 61.64710938 58.7584375 61.98046875 59.921875 C63.95342397 68.99932155 64.00627593 78.11611756 64 87.375 C63.99919434 88.6132251 63.99838867 89.8514502 63.99755859 91.12719727 C63.9370183 100.19102823 63.27775844 108.81296272 61.8125 117.75 C61.70292969 118.77609375 61.59335938 119.8021875 61.48046875 120.859375 C59.74785025 135.86270885 54.1512171 150.37192378 46.70703125 163.42578125 C45.32424047 165.85208013 44.11925104 168.20775413 42.94140625 170.7265625 C40.84265013 174.97245665 38.09024473 178.30636197 34.9375 181.8125 C34.43347656 182.38548828 33.92945313 182.95847656 33.41015625 183.54882812 C32.39578187 184.70199797 31.37781423 185.85201741 30.35620117 186.9987793 C28.26656422 189.36932586 26.23584342 191.78828828 24.20874023 194.21240234 C21.98438939 196.66194975 19.3553293 198.63999271 16.8125 200.75 C16.090625 201.6575 15.36875 202.565 14.625 203.5 C10.41297951 208.78919294 4.25551599 214.602328 -2.1875 216.75 C-2.1875 217.41 -2.1875 218.07 -2.1875 218.75 C-3.5769043 220.01513672 -3.5769043 220.01513672 -5.51171875 221.4296875 C-6.21103516 221.94660156 -6.91035156 222.46351563 -7.63085938 222.99609375 C-8.37142578 223.53363281 -9.11199219 224.07117188 -9.875 224.625 C-11.31691274 225.68420668 -12.75833007 226.74408816 -14.19921875 227.8046875 C-14.88677246 228.30709961 -15.57432617 228.80951172 -16.28271484 229.32714844 C-17.91842944 230.54900753 -19.50574269 231.83519304 -21.08203125 233.1328125 C-23.1875 234.75 -23.1875 234.75 -25.1875 234.75 C-25.47343018 235.47888428 -25.75936035 236.20776855 -26.05395508 236.95874023 C-30.67046375 248.32650756 -36.18173282 259.45676785 -42.546875 269.94140625 C-44.39418769 273.10382965 -46.01195032 276.33713973 -47.625 279.625 C-52.41469228 289.35473365 -57.87798981 298.67502241 -63.5078125 307.94140625 C-64.83875738 310.1668699 -66.14087324 312.40255266 -67.4296875 314.65234375 C-75.61262018 328.88077906 -85.06957179 341.84520384 -95.1875 354.75 C-96.25871094 356.17119141 -96.25871094 356.17119141 -97.3515625 357.62109375 C-98.26035156 358.67490234 -98.26035156 358.67490234 -99.1875 359.75 C-99.8475 359.75 -100.5075 359.75 -101.1875 359.75 C-101.8475 361.07 -102.5075 362.39 -103.1875 363.75 C-103.8475 363.75 -104.5075 363.75 -105.1875 363.75 C-105.1875 364.41 -105.1875 365.07 -105.1875 365.75 C-107.37976968 367.55111783 -109.57247886 369.22480407 -111.875 370.875 C-112.55691406 371.36782471 -113.23882813 371.86064941 -113.94140625 372.3684082 C-128.58427614 382.83853648 -144.10065489 391.30523216 -160.796875 397.96484375 C-165.34066257 399.78622324 -169.79213333 401.79181108 -174.25 403.8125 C-181.21756363 406.95165771 -188.25497803 409.75853728 -195.43359375 412.375 C-198.99758122 413.68043558 -202.53008445 415.04932266 -206.0625 416.4375 C-210.50072834 418.15078667 -214.93231579 419.63991524 -219.50390625 420.94921875 C-222.7002417 421.90300153 -225.84388861 422.98304822 -229 424.0625 C-236.92531609 426.74793768 -244.95730916 429.01879981 -253.01171875 431.28125 C-256.15059251 432.16443558 -259.27830537 433.07125743 -262.39453125 434.03125 C-279.46164993 439.27881452 -296.94872089 442.95742852 -314.4375 446.5 C-315.41138672 446.69851563 -316.38527344 446.89703125 -317.38867188 447.1015625 C-329.65039827 449.53226454 -341.57591159 451.05603796 -354.08984375 450.98046875 C-355.36944473 450.98001053 -356.64904572 450.97955231 -357.96742249 450.9790802 C-360.65908385 450.97753145 -363.35060921 450.96937799 -366.04223633 450.95581055 C-369.41691032 450.93897548 -372.79143546 450.93509014 -376.16614628 450.93561459 C-417.65167412 450.93420998 -417.65167412 450.93420998 -437.375 448.3125 C-438.36306641 448.19068359 -439.35113281 448.06886719 -440.36914062 447.94335938 C-465.1189358 444.81928451 -487.96255563 439.28227669 -510.1875 427.75 C-511.39936821 427.14895772 -512.61292545 426.55130932 -513.828125 425.95703125 C-520.83028149 422.53092559 -527.5711388 418.87018856 -534.1875 414.75 C-535.28578125 414.08613281 -536.3840625 413.42226562 -537.515625 412.73828125 C-538.67721278 412.03406764 -539.83867225 411.32964235 -541 410.625 C-542.05832031 409.98304688 -543.11664062 409.34109375 -544.20703125 408.6796875 C-547.02699115 406.85392054 -549.5837511 404.86723526 -552.1875 402.75 C-553.49888904 402.04114106 -554.82527017 401.35543548 -556.1875 400.75 C-556.1875 400.09 -556.1875 399.43 -556.1875 398.75 C-557.1775 398.75 -558.1675 398.75 -559.1875 398.75 C-560.55652161 397.45333683 -561.88406437 396.11257518 -563.1875 394.75 C-564.98131379 393.39163108 -566.79586765 392.06042317 -568.625 390.75 C-575.62051214 385.57417936 -581.91459174 379.77024946 -588.1875 373.75 C-588.97125 373.01394531 -589.755 372.27789063 -590.5625 371.51953125 C-592.1875 369.75 -592.1875 369.75 -592.1875 367.75 C-593.1775 367.42 -594.1675 367.09 -595.1875 366.75 C-595.1875 366.09 -595.1875 365.43 -595.1875 364.75 C-596.1775 364.42 -597.1675 364.09 -598.1875 363.75 C-599.9765625 362.0078125 -599.9765625 362.0078125 -601.8125 359.875 C-602.72902344 358.82699219 -602.72902344 358.82699219 -603.6640625 357.7578125 C-605.1875 355.75 -605.1875 355.75 -606.1875 352.75 C-606.8475 352.75 -607.5075 352.75 -608.1875 352.75 C-609.6953125 351.2890625 -609.6953125 351.2890625 -611.3125 349.375 C-611.85132813 348.74851562 -612.39015625 348.12203125 -612.9453125 347.4765625 C-614.1875 345.75 -614.1875 345.75 -614.1875 343.75 C-615.1775 343.42 -616.1675 343.09 -617.1875 342.75 C-619.01171875 340.97265625 -619.01171875 340.97265625 -620.875 338.8125 C-621.80892578 337.74708984 -621.80892578 337.74708984 -622.76171875 336.66015625 C-624.1875 334.75 -624.1875 334.75 -624.1875 332.75 C-625.1775 332.42 -626.1675 332.09 -627.1875 331.75 C-629.0546875 329.640625 -629.0546875 329.640625 -631.0625 327 C-633.23000935 324.20755182 -635.31005186 321.62744814 -637.8125 319.125 C-642.82361242 314.11388758 -646.42620797 308.8098956 -649.13671875 302.2734375 C-650.34518774 299.37131495 -651.6677076 296.53487955 -653 293.6875 C-654.97527235 289.42924957 -656.89188936 285.15299828 -658.74804688 280.84204102 C-659.91841851 278.13343874 -661.11132771 275.43514207 -662.30957031 272.73876953 C-662.88702713 271.43065962 -663.45692361 270.11918151 -664.01855469 268.80419922 C-667.88556759 259.80657958 -672.10918608 254.34894668 -680.1875 248.75 C-682.24401655 247.14383454 -684.28586582 245.51870973 -686.3125 243.875 C-687.70855469 242.76511719 -687.70855469 242.76511719 -689.1328125 241.6328125 C-689.81085938 241.01148438 -690.48890625 240.39015625 -691.1875 239.75 C-691.1875 239.09 -691.1875 238.43 -691.1875 237.75 C-691.74953125 237.4921875 -692.3115625 237.234375 -692.890625 236.96875 C-695.45454579 235.60830223 -697.63976365 234.02211038 -699.9375 232.25 C-700.73671875 231.6415625 -701.5359375 231.033125 -702.359375 230.40625 C-702.96265625 229.8596875 -703.5659375 229.313125 -704.1875 228.75 C-704.1875 228.09 -704.1875 227.43 -704.1875 226.75 C-704.991875 226.4096875 -704.991875 226.4096875 -705.8125 226.0625 C-709.01210161 224.29429911 -711.47787223 222.21329797 -714.1875 219.75 C-714.1875 219.09 -714.1875 218.43 -714.1875 217.75 C-715.1775 217.42 -716.1675 217.09 -717.1875 216.75 C-717.1875 216.09 -717.1875 215.43 -717.1875 214.75 C-717.744375 214.5025 -718.30125 214.255 -718.875 214 C-729.28419603 208.37340755 -734.34567901 198.18486614 -738.75 187.6875 C-739.22324707 186.58494873 -739.69649414 185.48239746 -740.18408203 184.34643555 C-743.77943645 175.90149022 -747.11213529 167.39709027 -750.1875 158.75 C-750.62578125 157.56535156 -751.0640625 156.38070312 -751.515625 155.16015625 C-757.83607925 137.93120716 -763.53605815 119.23466259 -764.1875 100.75 C-764.2390625 99.65558594 -764.290625 98.56117188 -764.34375 97.43359375 C-764.61193663 87.25367622 -763.66741239 76.60216616 -758.1875 67.75 C-757.86265625 67.19054687 -757.5378125 66.63109375 -757.203125 66.0546875 C-753.54269947 60.26319231 -748.252152 56.782326 -742.1875 53.75 C-736.87976838 53.14684868 -734.34123494 54.49925091 -730.1875 57.75 C-722.32693283 64.68671565 -718.30884843 76.94787072 -715.1875 86.75 C-714.87296875 87.73484375 -714.5584375 88.7196875 -714.234375 89.734375 C-712.5786154 95.22729175 -711.17989047 100.61955249 -710.17578125 106.265625 C-708.07969487 117.72240675 -705.77415041 126.28996584 -698.19921875 135.30078125 C-696.1875 137.75 -696.1875 137.75 -696.1875 139.75 C-695.5275 139.75 -694.8675 139.75 -694.1875 139.75 C-692.56640625 141.4296875 -692.56640625 141.4296875 -690.75 143.625 C-688.60349116 146.21193722 -687.01973438 147.86184374 -684.1875 149.75 C-687.38107424 141.34935369 -687.38107424 141.34935369 -690.71484375 133.00390625 C-693.97906773 125.03944876 -696.91527868 117.06327128 -699.1875 108.75 C-699.414375 107.92371094 -699.64125 107.09742188 -699.875 106.24609375 C-703.66736246 90.26023256 -700.81347961 73.96626815 -693.43359375 59.47265625 C-692.1875 57.75 -692.1875 57.75 -689.1875 56.75 C-688.89875 56.1725 -688.61 55.595 -688.3125 55 C-686.78666744 51.94833488 -684.6778974 50.06664874 -682.1875 47.75 C-681.445 46.986875 -680.7025 46.22375 -679.9375 45.4375 C-676.5899582 43.38332662 -674.29656389 42.99032702 -670.40625 43.171875 C-667.04133451 44.04864875 -665.49738407 45.87347898 -663.37890625 48.53515625 C-660.38410042 54.10254939 -659.8429948 60.01569513 -659.3125 66.1875 C-657.56830399 83.64023783 -653.53639356 107.15626566 -639.5859375 118.94921875 C-636.55114978 121.10505498 -633.51806463 123.08471768 -630.1875 124.75 C-630.1875 125.41 -630.1875 126.07 -630.1875 126.75 C-629.06601562 127.16185547 -629.06601562 127.16185547 -627.921875 127.58203125 C-625.39779816 128.66017264 -623.61239804 129.79733929 -621.4375 131.4375 C-619.70622538 132.57080148 -617.95289323 133.67061555 -616.1875 134.75 C-615.61515625 135.10481445 -615.0428125 135.45962891 -614.453125 135.82519531 C-607.96346829 139.67004874 -601.77913345 142.66170513 -594.15625 140.9140625 C-589.61920313 139.54350071 -585.26736575 137.77408877 -580.91650391 135.90234375 C-578.17183506 134.74338536 -575.40660626 133.70164589 -572.60546875 132.6875 C-551.07442313 125.28432527 -551.07442313 125.28432527 -536.76953125 108.578125 C-534.6871044 104.85546564 -532.44677937 101.24234113 -530.1875 97.625 C-529.77218018 96.9561377 -529.35686035 96.28727539 -528.92895508 95.59814453 C-526.88500937 92.33667443 -524.78529164 89.14903046 -522.52734375 86.03125 C-520.73704418 83.55866524 -519.1672247 81.08485821 -517.75 78.375 C-510.25182631 64.6244307 -510.25182631 64.6244307 -504.1875 60.75 C-503.5275 60.75 -502.8675 60.75 -502.1875 60.75 C-502.1875 60.09 -502.1875 59.43 -502.1875 58.75 C-492.68124565 56.100716 -484.09962461 56.11855756 -475.125 60.58984375 C-469.84205634 63.75321929 -466.83668268 67.8850941 -465.1875 73.75 C-460.13382496 96.01775564 -463.00939041 120.64806558 -466.4375 143 C-466.65935622 144.47241003 -466.88119842 145.94482218 -467.10302734 147.41723633 C-468.57517063 157.10677037 -470.13986568 166.7805496 -471.8125 176.4375 C-472.00618164 177.58186523 -472.19986328 178.72623047 -472.39941406 179.90527344 C-474.48367953 191.57504405 -478.07128513 198.94511309 -487.97753906 206.03027344 C-495.35582736 211.00494386 -503.04074303 215.40986403 -511.06640625 219.25390625 C-513.40793323 220.3763153 -515.71961091 221.52656327 -518.02734375 222.71484375 C-525.23363078 226.41366126 -532.38419744 229.73229694 -540.00390625 232.51953125 C-544.62313277 234.30487647 -549.05449533 236.4519525 -553.5078125 238.61328125 C-556.1875 239.75 -556.1875 239.75 -559.1875 239.75 C-558.92195312 240.78898437 -558.65640625 241.82796875 -558.3828125 242.8984375 C-556.62684709 249.81763895 -554.94585525 256.71026436 -553.6171875 263.7265625 C-553.1870428 265.93848247 -553.1870428 265.93848247 -552.1875 268.75 C-551.32945838 271.32412485 -550.76006265 273.71930192 -550.25 276.375 C-549.48688293 280.30982239 -548.66384045 284.22213974 -547.75 288.125 C-547.52441406 289.10210938 -547.29882812 290.07921875 -547.06640625 291.0859375 C-546.16077668 293.83100136 -544.96351077 295.50401424 -543.1875 297.75 C-543.1875 298.41 -543.1875 299.07 -543.1875 299.75 C-542.1975 300.08 -541.2075 300.41 -540.1875 300.75 C-538.6796875 302.31640625 -538.6796875 302.31640625 -537.0625 304.3125 C-530.83662275 311.60641477 -523.97330449 317.16556805 -515.765625 322.109375 C-513.1875 323.75 -513.1875 323.75 -510.98828125 325.6484375 C-507.0022713 328.63933478 -502.63922773 330.54840742 -498.125 332.625 C-496.22738589 333.51069386 -494.33024686 334.39740634 -492.43359375 335.28515625 C-491.52464355 335.70941895 -490.61569336 336.13368164 -489.67919922 336.57080078 C-486.64670875 338.00593001 -483.66786196 339.52231295 -480.6875 341.0625 C-475.71096827 343.57904161 -470.62080448 345.59152897 -465.3984375 347.5390625 C-462.33935548 348.6927309 -459.32562585 349.9192406 -456.3125 351.1875 C-449.30547031 354.13100785 -442.26050272 356.9696836 -435.1875 359.75 C-433.64449219 360.36101562 -433.64449219 360.36101562 -432.0703125 360.984375 C-431.13960937 361.34015625 -430.20890625 361.6959375 -429.25 362.0625 C-428.45722656 362.36800781 -427.66445313 362.67351562 -426.84765625 362.98828125 C-394.46273839 372.26149562 -347.09957521 367.86902496 -314.1875 360.75 C-312.31578125 360.41162109 -312.31578125 360.41162109 -310.40625 360.06640625 C-286.94757279 355.77695804 -264.53141092 346.84192997 -244.9375 333.25 C-243.98359375 332.59902344 -243.0296875 331.94804688 -242.046875 331.27734375 C-238.11893745 328.57688669 -234.25584369 325.89252911 -230.640625 322.78125 C-228.1875 320.75 -228.1875 320.75 -226.1875 320.75 C-226.1875 320.09 -226.1875 319.43 -226.1875 318.75 C-224.71875 317.33984375 -224.71875 317.33984375 -222.6875 315.6875 C-206.55122029 301.87665954 -196.79886682 283.48521666 -189.26489258 263.97094727 C-187.90921453 260.47399312 -186.43270781 257.131165 -184.6875 253.8125 C-182.22654619 249.0630159 -180.3872594 244.13137601 -178.55639648 239.11645508 C-176.74935216 234.18498022 -174.79070883 229.33887608 -172.75 224.5 C-170.10208599 218.17418204 -167.7018253 211.78545771 -165.4375 205.3125 C-165.01513062 204.1064209 -165.01513062 204.1064209 -164.58422852 202.87597656 C-162.62936243 197.21135418 -160.88254867 191.49699137 -159.1875 185.75 C-158.8575 184.6775 -158.5275 183.605 -158.1875 182.5 C-154.11589721 168.76112895 -154.11589721 168.76112895 -155.1875 154.75 C-157.08276777 152.26565849 -157.08276777 152.26565849 -159.1875 150.75 C-159.1875 150.09 -159.1875 149.43 -159.1875 148.75 C-159.8475 148.75 -160.5075 148.75 -161.1875 148.75 C-164.1875 145.28846154 -164.1875 145.28846154 -164.1875 142.75 C-164.8475 142.75 -165.5075 142.75 -166.1875 142.75 C-166.1875 141.76 -166.1875 140.77 -166.1875 139.75 C-167.1775 139.42 -168.1675 139.09 -169.1875 138.75 C-170.90492212 136.32018764 -172.46983221 133.91856208 -174 131.375 C-174.44432373 130.64837158 -174.88864746 129.92174316 -175.34643555 129.1730957 C-178.81394235 123.46335621 -182.15921685 117.70653293 -185.1875 111.75 C-185.84685547 110.46802734 -185.84685547 110.46802734 -186.51953125 109.16015625 C-192.64926489 96.54883115 -197.46483357 80.80181544 -193.31640625 66.8125 C-192.3867932 64.68767017 -191.38983839 62.72975397 -190.1875 60.75 C-189.8575 60.09 -189.5275 59.43 -189.1875 58.75 C-188.5275 58.75 -187.8675 58.75 -187.1875 58.75 C-186.89875 58.151875 -186.61 57.55375 -186.3125 56.9375 C-183.9464674 52.33688106 -181.9662235 50.67986911 -177.1875 48.75 C-172.30639316 48.13986165 -169.2585406 49.00827878 -165.1875 51.75 C-160.25793697 56.94783857 -156.83662479 62.92587341 -153.53515625 69.23828125 C-152.42728897 71.30308896 -151.27424189 73.20620814 -149.9375 75.125 C-148.2654971 77.63300435 -147.22496562 79.93402189 -146.1875 82.75 C-145.81625 83.45125 -145.445 84.1525 -145.0625 84.875 C-144.1875 86.75 -144.1875 86.75 -144.1875 89.75 C-143.5275 89.75 -142.8675 89.75 -142.1875 89.75 C-141.795625 90.719375 -141.40375 91.68875 -141 92.6875 C-139.37228984 96.50874337 -137.36894048 100.06137537 -135.32421875 103.671875 C-133.54600919 106.92275982 -132.35578696 110.24513912 -131.1875 113.75 C-129.39037164 114.8525239 -129.39037164 114.8525239 -127.1875 115.75 C-126.40632812 116.1521875 -125.62515625 116.554375 -124.8203125 116.96875 C-116.09145436 121.42835354 -109.14264379 123.72683951 -99.1875 122.75 C-97.7025 121.76 -97.7025 121.76 -96.1875 120.75 C-94.1875 120.08333333 -92.1875 119.41666667 -90.1875 118.75 C-88.7025 117.76 -88.7025 117.76 -87.1875 116.75 C-86.1975 116.75 -85.2075 116.75 -84.1875 116.75 C-84.1875 116.09 -84.1875 115.43 -84.1875 114.75 C-82.7265625 113.56640625 -82.7265625 113.56640625 -80.8125 112.3125 C-78.10159131 110.53311755 -77.05953979 109.55805969 -75.1875 106.75 C-74.5275 106.75 -73.8675 106.75 -73.1875 106.75 C-72.8575 105.76 -72.5275 104.77 -72.1875 103.75 C-71.5275 103.75 -70.8675 103.75 -70.1875 103.75 C-69.8575 102.76 -69.5275 101.77 -69.1875 100.75 C-68.5275 100.75 -67.8675 100.75 -67.1875 100.75 C-66.89875 100.151875 -66.61 99.55375 -66.3125 98.9375 C-65.1875 96.75 -65.1875 96.75 -63.1875 93.75 C-62.5275 93.75 -61.8675 93.75 -61.1875 93.75 C-61.01734375 93.20472656 -60.8471875 92.65945313 -60.671875 92.09765625 C-59.41832372 88.19697806 -58.09231002 84.40953594 -56.375 80.6875 C-54.43702999 76.47130571 -52.84114701 72.16735084 -51.25 67.8125 C-49.24514947 62.35166301 -47.02410438 57.16910805 -44.32421875 52.0078125 C-43.20660117 49.78793978 -42.27399964 47.56619995 -41.375 45.25 C-35.04386216 29.11826078 -27.824011 13.54825256 -17.1875 -0.25 C-11.63521759 -2.1007608 -5.49960021 -2.13753993 0 0 Z M-684.1875 149.75 C-683.1875 151.75 -683.1875 151.75 -683.1875 151.75 Z " transform="translate(1067.1875,785.25)" style="fill: rgb(0, 0, 0); --darkreader-inline-fill: var(--darkreader-text-000000, #e8e6e3);" data-darkreader-inline-fill=""/><path d="M0 0 C8.96113224 7.13232974 16.87404743 17.33224347 18.25 28.9375 C18.50620927 40.26464649 13.26703901 51.15228501 7.0625 60.4375 C5.5775 60.9325 5.5775 60.9325 4.0625 61.4375 C3.7325 62.4275 3.4025 63.4175 3.0625 64.4375 C-2.40261628 69.4375 -2.40261628 69.4375 -4.9375 69.4375 C-4.9375 70.0975 -4.9375 70.7575 -4.9375 71.4375 C-6.92351735 73.05630305 -8.90259554 74.53702989 -11 76 C-11.62616211 76.44182617 -12.25232422 76.88365234 -12.89746094 77.33886719 C-19.69454616 82.06947642 -26.78644577 86.27087418 -33.9375 90.4375 C-39.18866703 93.52642178 -44.29159092 96.63435275 -49.1953125 100.25 C-51.02954333 101.50023806 -52.90060674 102.48672648 -54.875 103.5 C-62.45287192 107.59439049 -69.13202816 113.19737706 -75.9375 118.4375 C-76.90300781 119.17355469 -77.86851562 119.90960938 -78.86328125 120.66796875 C-82.87593826 123.69888602 -82.87593826 123.69888602 -86.54296875 127.12109375 C-87.9375 128.4375 -87.9375 128.4375 -89.9375 128.4375 C-90.2675 129.4275 -90.5975 130.4175 -90.9375 131.4375 C-91.5975 131.4375 -92.2575 131.4375 -92.9375 131.4375 C-93.2675 132.4275 -93.5975 133.4175 -93.9375 134.4375 C-94.5975 134.4375 -95.2575 134.4375 -95.9375 134.4375 C-96.2778125 135.241875 -96.2778125 135.241875 -96.625 136.0625 C-98.39320089 139.26210161 -100.47420203 141.72787223 -102.9375 144.4375 C-103.5975 144.4375 -104.2575 144.4375 -104.9375 144.4375 C-105.30875 145.241875 -105.30875 145.241875 -105.6875 146.0625 C-107.24402537 149.0198982 -108.97185673 151.73474051 -110.9375 154.4375 C-111.5975 154.4375 -112.2575 154.4375 -112.9375 154.4375 C-113.05738281 155.0253125 -113.17726563 155.613125 -113.30078125 156.21875 C-113.95739726 158.50683524 -114.7958497 159.97603548 -116.125 161.9375 C-118.96410934 166.3274523 -121.2314426 170.92946966 -123.52734375 175.62109375 C-124.6349269 177.83319196 -125.78702753 179.94671625 -127.0625 182.0625 C-128.98101376 185.51582476 -130.38521269 188.95559035 -131.8046875 192.6328125 C-133.07908483 195.78804452 -134.49455086 198.85582469 -135.9375 201.9375 C-140.17873239 211.06675273 -143.58993344 220.27501161 -146.72216797 229.83154297 C-148.30930741 234.64730848 -150.06066991 239.34064004 -152.0078125 244.0234375 C-153.54521202 248.01550851 -154.71104683 252.1186818 -155.9375 256.21484375 C-157.13309934 260.06784943 -158.52296919 263.82720768 -159.93359375 267.60546875 C-161.42702554 271.81845725 -162.66765501 276.10176945 -163.91015625 280.39453125 C-164.98739487 283.58528746 -166.36755044 286.4621565 -167.9375 289.4375 C-168.5975 289.4375 -169.2575 289.4375 -169.9375 289.4375 C-170.06439209 290.02176758 -170.19128418 290.60603516 -170.32202148 291.20800781 C-170.92579526 293.39510107 -171.7052613 295.120997 -172.78515625 297.109375 C-173.32172852 298.10517578 -173.32172852 298.10517578 -173.86914062 299.12109375 C-174.24232422 299.80300781 -174.61550781 300.48492187 -175 301.1875 C-175.37705078 301.88488281 -175.75410156 302.58226562 -176.14257812 303.30078125 C-177.07023388 305.01518302 -178.00333454 306.72663661 -178.9375 308.4375 C-179.5975 308.4375 -180.2575 308.4375 -180.9375 308.4375 C-181.04191406 308.99953125 -181.14632812 309.5615625 -181.25390625 310.140625 C-182.06363235 312.86130471 -183.29953338 314.83007807 -184.875 317.1875 C-185.39964844 317.98671875 -185.92429687 318.7859375 -186.46484375 319.609375 C-186.95082031 320.21265625 -187.43679688 320.8159375 -187.9375 321.4375 C-188.5975 321.4375 -189.2575 321.4375 -189.9375 321.4375 C-190.164375 321.994375 -190.39125 322.55125 -190.625 323.125 C-193.74585397 328.62364747 -199.09373942 332.2339225 -204.125 335.875 C-204.78338867 336.35437012 -205.44177734 336.83374023 -206.12011719 337.32763672 C-216.03597044 344.47295508 -223.42526676 349.33466397 -235.9375 348.4375 C-243.97710876 346.99313171 -250.35237992 344.55173672 -255.9375 338.4375 C-261.81377233 329.58493389 -259.94599585 319.40920492 -258.9375 309.4375 C-258.85612793 308.53725098 -258.77475586 307.63700195 -258.69091797 306.70947266 C-257.52963826 294.1469383 -255.35456667 281.90184158 -252.5 269.625 C-252.0676001 267.75751099 -252.0676001 267.75751099 -251.62646484 265.85229492 C-250.0604174 259.35192732 -248.22690284 253.0977576 -245.8503418 246.84790039 C-245.05887482 244.75799575 -244.33805692 242.66901984 -243.6640625 240.5390625 C-241.34494931 233.21987548 -238.65833085 226.3451636 -235.33203125 219.40625 C-234.12520551 216.83709717 -233.0661369 214.27778475 -232.0625 211.625 C-229.2259998 204.32252076 -225.49566644 197.40727225 -221.9375 190.4375 C-221.6075 189.7775 -221.2775 189.1175 -220.9375 188.4375 C-220.2775 188.4375 -219.6175 188.4375 -218.9375 188.4375 C-218.83566406 187.71820313 -218.73382813 186.99890625 -218.62890625 186.2578125 C-216.65079393 178.18890234 -209.92848167 170.94924227 -205.06640625 164.35546875 C-202.66270895 161.06085979 -200.32243474 157.7271497 -198 154.375 C-197.24847656 153.29089844 -196.49695313 152.20679688 -195.72265625 151.08984375 C-193.96771226 148.60492848 -193.96771226 148.60492848 -192.9375 146.4375 C-192.2775 146.4375 -191.6175 146.4375 -190.9375 146.4375 C-190.9375 145.4475 -190.9375 144.4575 -190.9375 143.4375 C-189.60009766 141.97216797 -189.60009766 141.97216797 -187.9375 140.4375 C-187.044143 139.27220795 -186.17811767 138.08561126 -185.3359375 136.8828125 C-184.85068604 136.1926001 -184.36543457 135.5023877 -183.86547852 134.79125977 C-183.35299561 134.05576904 -182.8405127 133.32027832 -182.3125 132.5625 C-181.50800415 131.41575806 -181.50800415 131.41575806 -180.68725586 130.24584961 C-177.60380552 125.84492922 -174.54692976 121.4262449 -171.5 117 C-166.28931078 109.4482765 -160.8891242 102.03484359 -155.50683594 94.60498047 C-153.2068986 91.42843354 -150.91108078 88.24903588 -148.625 85.0625 C-148.22482666 84.50554443 -147.82465332 83.94858887 -147.41235352 83.37475586 C-143.96148621 78.53954971 -140.72321636 73.58065313 -137.53125 68.5703125 C-137.0053125 67.86648437 -136.479375 67.16265625 -135.9375 66.4375 C-135.2775 66.4375 -134.6175 66.4375 -133.9375 66.4375 C-133.86015625 65.88835937 -133.7828125 65.33921875 -133.703125 64.7734375 C-132.65941638 61.58906121 -130.84684823 59.61510702 -128.6875 57.0625 C-126.25346795 54.18280011 -123.8684504 51.34418973 -121.625 48.3125 C-114.10155024 40.26415839 -104.13233726 34.40312079 -94.9375 28.4375 C-94.13699219 27.90640625 -93.33648437 27.3753125 -92.51171875 26.828125 C-87.30196629 23.4375 -87.30196629 23.4375 -83.9375 23.4375 C-83.9375 22.7775 -83.9375 22.1175 -83.9375 21.4375 C-81.39830994 20.14076398 -78.85635762 18.85002163 -76.3125 17.5625 C-75.59964844 17.19769531 -74.88679687 16.83289063 -74.15234375 16.45703125 C-70.14183906 14.43338209 -66.23730296 12.77861501 -61.9375 11.4375 C-59.91296312 10.65535303 -57.89224107 9.86327585 -55.875 9.0625 C-45.31542591 5.00112535 -34.87839239 2.02812406 -23.75 0.1015625 C-21.39009943 -0.30948575 -19.03444051 -0.74701937 -16.6875 -1.2265625 C-10.3578842 -2.51656572 -5.89955411 -3.13806069 0 0 Z " transform="translate(537.9375,172.5625)" style="fill: rgb(0, 0, 0); --darkreader-inline-fill: var(--darkreader-text-000000, #e8e6e3);" data-darkreader-inline-fill=""/><path d="M0 0 C4.99956302 2.98050872 7.1550147 6.5742193 9.78125 11.68359375 C10.92507865 13.8576014 12.19157726 15.83951411 13.5625 17.875 C21.94848132 31.23437087 21.99876953 45.34535562 18.65063477 60.25390625 C17.9622374 63.19550207 17.22157585 66.12261296 16.47460938 69.04980469 C16.07028132 70.71121031 15.73828022 72.38994422 15.421875 74.0703125 C14.32260173 79.20548907 12.80079524 81.60096714 8.5 84.6875 C6.68142699 85.81581172 4.84723559 86.9192522 3 88 C1.10074504 89.20294808 -0.7951195 90.4112663 -2.6875 91.625 C-3.60015625 92.20378906 -4.5128125 92.78257813 -5.453125 93.37890625 C-6.29359375 93.91386719 -7.1340625 94.44882813 -8 95 C-8.69609375 95.44214844 -9.3921875 95.88429688 -10.109375 96.33984375 C-14.27760771 99.12757204 -16.39508634 101.8514338 -19 106 C-19.66 106 -20.32 106 -21 106 C-21.37125 107.0828125 -21.37125 107.0828125 -21.75 108.1875 C-23.11136803 111.25057808 -24.88983277 113.41334339 -27 116 C-27.33 116.99 -27.66 117.98 -28 119 C-28.66 119 -29.32 119 -30 119 C-30.37125 120.2684375 -30.37125 120.2684375 -30.75 121.5625 C-33.04905649 127.88490534 -35.48644037 131.97659162 -41 136 C-41.33 136.66 -41.66 137.32 -42 138 C-42.66 138 -43.32 138 -44 138 C-44.2578125 138.56203125 -44.515625 139.1240625 -44.78125 139.703125 C-46.14169777 142.26704579 -47.72788962 144.45226365 -49.5 146.75 C-50.1084375 147.54921875 -50.716875 148.3484375 -51.34375 149.171875 C-51.8903125 149.77515625 -52.436875 150.3784375 -53 151 C-53.66 151 -54.32 151 -55 151 C-55.21527344 151.52335937 -55.43054687 152.04671875 -55.65234375 152.5859375 C-57.54036396 155.96795631 -60.0245264 158.7133171 -62.5625 161.625 C-66.14573678 165.55820931 -66.14573678 165.55820931 -69 170 C-69.66 170 -70.32 170 -71 170 C-71.2475 170.721875 -71.495 171.44375 -71.75 172.1875 C-73.12269592 175.27606582 -74.72353296 177.51011418 -77 180 C-77.66 180 -78.32 180 -79 180 C-79.226875 180.52464844 -79.45375 181.04929687 -79.6875 181.58984375 C-81.45923121 184.84329065 -83.70534728 187.66934507 -86 190.5625 C-86.73041504 191.48796631 -86.73041504 191.48796631 -87.47558594 192.43212891 C-91.36548344 197.31023661 -95.4525922 201.94307282 -99.703125 206.51171875 C-102.43904162 209.47562842 -105.04248081 212.53893731 -107.625 215.63671875 C-109 217 -109 217 -111 217 C-111 217.66 -111 218.32 -111 219 C-112.4609375 220.5078125 -112.4609375 220.5078125 -114.375 222.125 C-115.00148438 222.66382813 -115.62796875 223.20265625 -116.2734375 223.7578125 C-118 225 -118 225 -120 225 C-120 225.66 -120 226.32 -120 227 C-121.65 227.66 -123.3 228.32 -125 229 C-125 229.66 -125 230.32 -125 231 C-126.44140625 232.15625 -126.44140625 232.15625 -128.5625 233.5 C-129.3771875 234.02464844 -130.191875 234.54929687 -131.03125 235.08984375 C-132.0109375 235.72019531 -132.990625 236.35054687 -134 237 C-135.86795586 238.24169582 -137.73050133 239.49125349 -139.59277344 240.74145508 C-162.15906776 255.87608802 -183.16795881 266.06588347 -211 264 C-217.65526497 262.32250856 -222.37161874 258.90478367 -226.22265625 253.18359375 C-228.59421953 249.0755638 -229.64217457 245.74374721 -228.75390625 241.03125 C-227.32445318 237.17987385 -224.89866898 233.8909802 -222 231 C-221.34 231 -220.68 231 -220 231 C-219.61714844 230.13761719 -219.61714844 230.13761719 -219.2265625 229.2578125 C-217.86962411 226.76000871 -216.30546854 224.95929074 -214.375 222.875 C-210.57223535 218.70444972 -207.08983365 214.35462292 -203.6640625 209.87109375 C-202.84035156 208.94490234 -202.84035156 208.94490234 -202 208 C-201.34 208 -200.68 208 -200 208 C-200 207.01 -200 206.02 -200 205 C-199.34 205 -198.68 205 -198 205 C-197.7525 204.45601562 -197.505 203.91203125 -197.25 203.3515625 C-192.40271859 194.23261435 -184.83317853 185.69299943 -177 179 C-176.34 179 -175.68 179 -175 179 C-174.67 178.01 -174.34 177.02 -174 176 C-173.34 176 -172.68 176 -172 176 C-171.67 175.01 -171.34 174.02 -171 173 C-170.34 173 -169.68 173 -169 173 C-168.67 172.01 -168.34 171.02 -168 170 C-167.34 170 -166.68 170 -166 170 C-165.75636719 169.42765625 -165.51273438 168.8553125 -165.26171875 168.265625 C-163.77482702 165.59566462 -162.01916092 163.86170993 -159.8125 161.75 C-156.37097498 158.38495332 -153.14392936 154.94747012 -150.01171875 151.296875 C-147.3971931 148.31174668 -144.69944296 145.40823965 -142 142.5 C-137.58491903 137.7334429 -133.2302362 132.9322366 -129 128 C-128.21625 127.10667969 -127.4325 126.21335937 -126.625 125.29296875 C-120.91931341 118.73121753 -115.60341563 111.93255313 -110.4375 104.9375 C-109.82962646 104.11596436 -109.22175293 103.29442871 -108.59545898 102.44799805 C-106.10911267 99.04779714 -103.79789676 95.82206854 -102 92 C-101.34 92 -100.68 92 -100 92 C-99.8983252 91.43321533 -99.79665039 90.86643066 -99.69189453 90.2824707 C-98.86525222 87.55548447 -97.61006521 85.78090059 -95.9296875 83.48046875 C-84.0212599 66.8991523 -73.10515901 49.72874136 -63 32 C-62.34 32 -61.68 32 -61 32 C-60.814375 31.195625 -60.62875 30.39125 -60.4375 29.5625 C-57.51168782 22.31157417 -52.89337857 16.6843785 -45.85546875 13.18359375 C-40.02740109 10.76785572 -34.06623456 8.74142109 -28.09155273 6.72290039 C-23.87901607 5.26692735 -19.7184132 3.6702639 -15.56640625 2.05078125 C-10.40814919 0.15037075 -5.48708158 -1.06837316 0 0 Z " transform="translate(1187,1028)" style="fill: rgb(0, 0, 0); --darkreader-inline-fill: var(--darkreader-text-000000, #e8e6e3);" data-darkreader-inline-fill=""/><path d="M0 0 C0.63035156 0.27424805 1.26070312 0.54849609 1.91015625 0.83105469 C15.42900115 6.72501838 25.69890921 15.76826026 34 28 C35.98621653 33.95864958 35.85761759 41.04319737 33.36328125 46.859375 C25.7590354 58.79956619 14.01457305 64.4992687 1.25 69.4375 C0.2506543 69.82437988 -0.74869141 70.21125977 -1.77832031 70.60986328 C-28.66078894 80.81265451 -57.45325245 88.37850441 -85.375 77.75 C-93.4316077 74.11326231 -98.33430021 70.22058126 -101.875 62 C-102.60940991 60.00942767 -103.32080654 58.01008267 -104 56 C-104.433125 54.783125 -104.86625 53.56625 -105.3125 52.3125 C-107.51997353 41.67649119 -104.73172652 32.89383579 -98.9375 23.8125 C-91.23395081 13.52484887 -79.40026785 8.22231507 -68 3 C-67.11054687 2.57589844 -66.22109375 2.15179688 -65.3046875 1.71484375 C-47.43477912 -5.84108214 -17.6624311 -8.59634279 0 0 Z " transform="translate(702,137)" style="fill: rgb(0, 0, 0); --darkreader-inline-fill: var(--darkreader-text-000000, #e8e6e3);" data-darkreader-inline-fill=""/><path d="M0 0 C0.99515625 0.25523438 1.9903125 0.51046875 3.015625 0.7734375 C7.51805168 2.17562181 10.37252573 3.38784493 12.75 7.625 C13.69035519 14.6776639 13.48899021 21.48237322 9.75 27.625 C0.30988246 35.65231083 -11.42902808 38.79831342 -23.26293945 41.21313477 C-30.42616181 42.6978818 -36.99034046 44.95731833 -43.8125 47.5625 C-57.71855903 52.73412699 -77.7800702 59.90949056 -92.32397461 53.74609375 C-94.42744443 52.64478504 -96.46482034 51.47265546 -98.5 50.25 C-99.19351563 49.85039063 -99.88703125 49.45078125 -100.6015625 49.0390625 C-107.59157593 44.96825008 -107.59157593 44.96825008 -110.25 42.625 C-110.25 41.965 -110.25 41.305 -110.25 40.625 C-111.24 40.295 -112.23 39.965 -113.25 39.625 C-114.82312288 36.92821792 -115.44833566 35.42943835 -114.69140625 32.359375 C-112.7044329 28.59004887 -109.94467063 26.03915868 -106.875 23.125 C-102.27858798 18.72203264 -102.27858798 18.72203264 -98.125 13.91015625 C-91.09588096 5.34341743 -77.78057302 2.84847904 -67.25 1.625 C-62.85359347 1.60060263 -58.60950609 2.10229037 -54.25 2.625 C-43.55748411 3.35666075 -33.5878625 1.92385778 -23.08105469 0.0480957 C-15.00230925 -1.37640819 -8.05835765 -2.13061289 0 0 Z " transform="translate(912.25,1289.375)" style="fill: rgb(0, 0, 0); --darkreader-inline-fill: var(--darkreader-text-000000, #e8e6e3);" data-darkreader-inline-fill=""/></svg>